<mxfile host="app.diagrams.net" modified="2022-05-10T13:57:28.123Z" agent="5.0 (Windows NT 10.0; Win64; x64) AppleWebKit/537.36 (KHTML, like Gecko) Chrome/101.0.4951.54 Safari/537.36" etag="2B30U58uMwXWT47rytPO" version="18.0.2" type="github" pages="2">
  <diagram id="v8R6VN3daj33qXkN_VN0" name="Namespace">
    <mxGraphModel dx="1422" dy="762" grid="1" gridSize="4" guides="1" tooltips="1" connect="1" arrows="1" fold="1" page="1" pageScale="1" pageWidth="827" pageHeight="1169" math="0" shadow="0">
      <root>
        <mxCell id="0" />
        <mxCell id="1" parent="0" />
        <mxCell id="B3y75TT9v0BTKmDL6PNu-1" value="&lt;b&gt;Node&lt;/b&gt;" style="rounded=0;whiteSpace=wrap;html=1;fillColor=#FFFFFF;strokeColor=none;fontSize=20;fontFamily=맑은 고딕;labelPosition=center;verticalLabelPosition=top;align=center;verticalAlign=bottom;spacingBottom=-11;" parent="1" vertex="1">
          <mxGeometry x="80" y="120" width="520" height="184" as="geometry" />
        </mxCell>
        <mxCell id="B3y75TT9v0BTKmDL6PNu-2" value="&lt;b&gt;Red&lt;/b&gt;" style="rounded=0;whiteSpace=wrap;html=1;fontSize=20;fillColor=#FF6666;strokeColor=none;labelPosition=center;verticalLabelPosition=top;align=center;verticalAlign=bottom;spacingBottom=-13;fontFamily=맑은 고딕;" parent="1" vertex="1">
          <mxGeometry x="109.75" y="179.82999999999998" width="130" height="80" as="geometry" />
        </mxCell>
        <mxCell id="B3y75TT9v0BTKmDL6PNu-3" value="" style="endArrow=none;html=1;rounded=0;fontFamily=맑은 고딕;fontSize=15;fontColor=#000000;strokeColor=#000000;strokeWidth=1;entryX=1;entryY=0;entryDx=0;entryDy=0;exitX=1;exitY=1;exitDx=0;exitDy=0;" parent="1" source="B3y75TT9v0BTKmDL6PNu-2" target="B3y75TT9v0BTKmDL6PNu-2" edge="1">
          <mxGeometry width="50" height="50" relative="1" as="geometry">
            <mxPoint x="199.25" y="379.83" as="sourcePoint" />
            <mxPoint x="199.25" y="339.83" as="targetPoint" />
          </mxGeometry>
        </mxCell>
        <mxCell id="B3y75TT9v0BTKmDL6PNu-4" value="" style="endArrow=none;html=1;rounded=0;fontFamily=맑은 고딕;fontSize=15;fontColor=#000000;strokeColor=#000000;strokeWidth=1;exitX=1;exitY=1;exitDx=0;exitDy=0;entryX=0;entryY=1;entryDx=0;entryDy=0;" parent="1" edge="1">
          <mxGeometry width="50" height="50" relative="1" as="geometry">
            <mxPoint x="240.75" y="259.48999999999995" as="sourcePoint" />
            <mxPoint x="109.75" y="259.48999999999995" as="targetPoint" />
          </mxGeometry>
        </mxCell>
        <mxCell id="B3y75TT9v0BTKmDL6PNu-5" value="" style="endArrow=none;html=1;rounded=0;fontFamily=맑은 고딕;fontSize=15;fontColor=#000000;strokeColor=#000000;strokeWidth=1;exitX=0;exitY=0;exitDx=0;exitDy=0;entryX=0;entryY=1;entryDx=0;entryDy=0;" parent="1" source="B3y75TT9v0BTKmDL6PNu-2" target="B3y75TT9v0BTKmDL6PNu-2" edge="1">
          <mxGeometry width="50" height="50" relative="1" as="geometry">
            <mxPoint x="109.25" y="339.83" as="sourcePoint" />
            <mxPoint x="109.25" y="379.83" as="targetPoint" />
          </mxGeometry>
        </mxCell>
        <mxCell id="B3y75TT9v0BTKmDL6PNu-6" value="" style="endArrow=none;html=1;rounded=0;fontFamily=맑은 고딕;fontSize=15;fontColor=#000000;strokeColor=#000000;strokeWidth=1;startSize=6;exitX=0;exitY=0;exitDx=0;exitDy=0;entryX=0.25;entryY=0;entryDx=0;entryDy=0;" parent="1" target="B3y75TT9v0BTKmDL6PNu-2" edge="1">
          <mxGeometry width="50" height="50" relative="1" as="geometry">
            <mxPoint x="109.25" y="179.82999999999998" as="sourcePoint" />
            <mxPoint x="153.75" y="179.82999999999998" as="targetPoint" />
          </mxGeometry>
        </mxCell>
        <mxCell id="B3y75TT9v0BTKmDL6PNu-7" value="" style="endArrow=none;html=1;rounded=0;fontFamily=맑은 고딕;fontSize=15;fontColor=#000000;strokeColor=#000000;strokeWidth=1;startSize=6;entryX=0.75;entryY=0;entryDx=0;entryDy=0;" parent="1" target="B3y75TT9v0BTKmDL6PNu-2" edge="1">
          <mxGeometry width="50" height="50" relative="1" as="geometry">
            <mxPoint x="240.25" y="179.82999999999998" as="sourcePoint" />
            <mxPoint x="197.75" y="179.82999999999998" as="targetPoint" />
          </mxGeometry>
        </mxCell>
        <mxCell id="B3y75TT9v0BTKmDL6PNu-15" value="&lt;b&gt;Blue&lt;/b&gt;" style="rounded=0;whiteSpace=wrap;html=1;fontSize=20;fillColor=#66B2FF;strokeColor=none;labelPosition=center;verticalLabelPosition=top;align=center;verticalAlign=bottom;spacingBottom=-13;fontFamily=맑은 고딕;" parent="1" vertex="1">
          <mxGeometry x="440.25" y="179.83" width="130" height="80" as="geometry" />
        </mxCell>
        <mxCell id="B3y75TT9v0BTKmDL6PNu-23" value="" style="endArrow=none;html=1;rounded=0;fontFamily=맑은 고딕;fontSize=15;fontColor=#000000;strokeColor=#000000;strokeWidth=1;entryX=1;entryY=0;entryDx=0;entryDy=0;exitX=1;exitY=1;exitDx=0;exitDy=0;" parent="1" source="B3y75TT9v0BTKmDL6PNu-15" target="B3y75TT9v0BTKmDL6PNu-15" edge="1">
          <mxGeometry width="50" height="50" relative="1" as="geometry">
            <mxPoint x="529.75" y="379.83000000000004" as="sourcePoint" />
            <mxPoint x="529.75" y="339.83000000000004" as="targetPoint" />
          </mxGeometry>
        </mxCell>
        <mxCell id="B3y75TT9v0BTKmDL6PNu-24" value="" style="endArrow=none;html=1;rounded=0;fontFamily=맑은 고딕;fontSize=15;fontColor=#000000;strokeColor=#000000;strokeWidth=1;exitX=1;exitY=1;exitDx=0;exitDy=0;entryX=0;entryY=1;entryDx=0;entryDy=0;" parent="1" edge="1">
          <mxGeometry width="50" height="50" relative="1" as="geometry">
            <mxPoint x="571.25" y="259.49" as="sourcePoint" />
            <mxPoint x="440.25" y="259.49" as="targetPoint" />
          </mxGeometry>
        </mxCell>
        <mxCell id="B3y75TT9v0BTKmDL6PNu-25" value="" style="endArrow=none;html=1;rounded=0;fontFamily=맑은 고딕;fontSize=15;fontColor=#000000;strokeColor=#000000;strokeWidth=1;exitX=0;exitY=0;exitDx=0;exitDy=0;entryX=0;entryY=1;entryDx=0;entryDy=0;" parent="1" source="B3y75TT9v0BTKmDL6PNu-15" target="B3y75TT9v0BTKmDL6PNu-15" edge="1">
          <mxGeometry width="50" height="50" relative="1" as="geometry">
            <mxPoint x="439.75" y="339.83000000000004" as="sourcePoint" />
            <mxPoint x="439.75" y="379.83000000000004" as="targetPoint" />
          </mxGeometry>
        </mxCell>
        <mxCell id="B3y75TT9v0BTKmDL6PNu-26" value="" style="endArrow=none;html=1;rounded=0;fontFamily=맑은 고딕;fontSize=15;fontColor=#000000;strokeColor=#000000;strokeWidth=1;startSize=6;exitX=0;exitY=0;exitDx=0;exitDy=0;entryX=0.25;entryY=0;entryDx=0;entryDy=0;" parent="1" target="B3y75TT9v0BTKmDL6PNu-15" edge="1">
          <mxGeometry width="50" height="50" relative="1" as="geometry">
            <mxPoint x="439.75" y="179.83" as="sourcePoint" />
            <mxPoint x="466.09000000000003" y="179.99999999999997" as="targetPoint" />
            <Array as="points">
              <mxPoint x="454.75" y="179.83" />
            </Array>
          </mxGeometry>
        </mxCell>
        <mxCell id="B3y75TT9v0BTKmDL6PNu-27" value="" style="endArrow=none;html=1;rounded=0;fontFamily=맑은 고딕;fontSize=15;fontColor=#000000;strokeColor=#000000;strokeWidth=1;startSize=6;entryX=0.75;entryY=0;entryDx=0;entryDy=0;" parent="1" target="B3y75TT9v0BTKmDL6PNu-15" edge="1">
          <mxGeometry width="50" height="50" relative="1" as="geometry">
            <mxPoint x="570.75" y="179.83" as="sourcePoint" />
            <mxPoint x="556.09" y="179.99999999999997" as="targetPoint" />
          </mxGeometry>
        </mxCell>
        <mxCell id="B3y75TT9v0BTKmDL6PNu-35" value="" style="endArrow=none;html=1;rounded=0;fontFamily=맑은 고딕;fontSize=20;fontColor=#000000;startSize=6;strokeColor=#000000;strokeWidth=1;entryX=0;entryY=0;entryDx=0;entryDy=0;exitX=0;exitY=1;exitDx=0;exitDy=0;" parent="1" source="B3y75TT9v0BTKmDL6PNu-1" target="B3y75TT9v0BTKmDL6PNu-1" edge="1">
          <mxGeometry width="50" height="50" relative="1" as="geometry">
            <mxPoint x="200" y="280" as="sourcePoint" />
            <mxPoint x="250" y="230" as="targetPoint" />
          </mxGeometry>
        </mxCell>
        <mxCell id="B3y75TT9v0BTKmDL6PNu-36" value="" style="endArrow=none;html=1;rounded=0;fontFamily=맑은 고딕;fontSize=20;fontColor=#000000;startSize=6;strokeColor=#000000;strokeWidth=1;entryX=1;entryY=0;entryDx=0;entryDy=0;exitX=1;exitY=1;exitDx=0;exitDy=0;" parent="1" source="B3y75TT9v0BTKmDL6PNu-1" target="B3y75TT9v0BTKmDL6PNu-1" edge="1">
          <mxGeometry width="50" height="50" relative="1" as="geometry">
            <mxPoint x="200" y="280" as="sourcePoint" />
            <mxPoint x="250" y="230" as="targetPoint" />
            <Array as="points" />
          </mxGeometry>
        </mxCell>
        <mxCell id="B3y75TT9v0BTKmDL6PNu-37" value="" style="endArrow=none;html=1;rounded=0;fontFamily=맑은 고딕;fontSize=20;fontColor=#000000;startSize=6;strokeColor=#000000;strokeWidth=1;entryX=1;entryY=1;entryDx=0;entryDy=0;" parent="1" target="B3y75TT9v0BTKmDL6PNu-1" edge="1">
          <mxGeometry width="50" height="50" relative="1" as="geometry">
            <mxPoint x="80" y="304" as="sourcePoint" />
            <mxPoint x="480.5" y="440" as="targetPoint" />
          </mxGeometry>
        </mxCell>
        <mxCell id="B3y75TT9v0BTKmDL6PNu-38" value="" style="endArrow=none;html=1;rounded=0;fontFamily=맑은 고딕;fontSize=20;fontColor=#000000;startSize=6;strokeColor=#000000;strokeWidth=1;entryX=1;entryY=0;entryDx=0;entryDy=0;exitX=0.75;exitY=0;exitDx=0;exitDy=0;" parent="1" source="B3y75TT9v0BTKmDL6PNu-1" target="B3y75TT9v0BTKmDL6PNu-1" edge="1">
          <mxGeometry width="50" height="50" relative="1" as="geometry">
            <mxPoint x="480" y="100" as="sourcePoint" />
            <mxPoint x="480.5" y="120" as="targetPoint" />
          </mxGeometry>
        </mxCell>
        <mxCell id="B3y75TT9v0BTKmDL6PNu-39" value="" style="endArrow=none;html=1;rounded=0;fontFamily=맑은 고딕;fontSize=20;fontColor=#000000;startSize=6;strokeColor=#000000;strokeWidth=1;entryX=0;entryY=0;entryDx=0;entryDy=0;exitX=0.423;exitY=0;exitDx=0;exitDy=0;exitPerimeter=0;" parent="1" source="B3y75TT9v0BTKmDL6PNu-1" edge="1">
          <mxGeometry width="50" height="50" relative="1" as="geometry">
            <mxPoint x="190" y="120" as="sourcePoint" />
            <mxPoint x="79.5" y="120" as="targetPoint" />
          </mxGeometry>
        </mxCell>
        <mxCell id="B3y75TT9v0BTKmDL6PNu-42" value="" style="endArrow=none;html=1;rounded=0;fontFamily=맑은 고딕;fontSize=20;fontColor=#000000;startSize=6;strokeColor=#000000;strokeWidth=1;entryX=1;entryY=0;entryDx=0;entryDy=0;" parent="1" target="B3y75TT9v0BTKmDL6PNu-1" edge="1">
          <mxGeometry width="50" height="50" relative="1" as="geometry">
            <mxPoint x="380" y="120" as="sourcePoint" />
            <mxPoint x="480.5" y="120" as="targetPoint" />
          </mxGeometry>
        </mxCell>
        <mxCell id="B3y75TT9v0BTKmDL6PNu-43" value="&lt;b&gt;Green&lt;/b&gt;" style="rounded=0;whiteSpace=wrap;html=1;fontSize=20;fillColor=#66FF66;strokeColor=none;labelPosition=center;verticalLabelPosition=top;align=center;verticalAlign=bottom;spacingBottom=-13;fontFamily=맑은 고딕;" parent="1" vertex="1">
          <mxGeometry x="274.75" y="179.82999999999998" width="130" height="80" as="geometry" />
        </mxCell>
        <mxCell id="B3y75TT9v0BTKmDL6PNu-44" value="" style="endArrow=none;html=1;rounded=0;fontFamily=맑은 고딕;fontSize=15;fontColor=#000000;strokeColor=#000000;strokeWidth=1;entryX=1;entryY=0;entryDx=0;entryDy=0;exitX=1;exitY=1;exitDx=0;exitDy=0;" parent="1" source="B3y75TT9v0BTKmDL6PNu-43" target="B3y75TT9v0BTKmDL6PNu-43" edge="1">
          <mxGeometry width="50" height="50" relative="1" as="geometry">
            <mxPoint x="364.25" y="379.83" as="sourcePoint" />
            <mxPoint x="364.25" y="339.83" as="targetPoint" />
          </mxGeometry>
        </mxCell>
        <mxCell id="B3y75TT9v0BTKmDL6PNu-45" value="" style="endArrow=none;html=1;rounded=0;fontFamily=맑은 고딕;fontSize=15;fontColor=#000000;strokeColor=#000000;strokeWidth=1;exitX=1;exitY=1;exitDx=0;exitDy=0;entryX=0;entryY=1;entryDx=0;entryDy=0;" parent="1" edge="1">
          <mxGeometry width="50" height="50" relative="1" as="geometry">
            <mxPoint x="405.7499999999999" y="259.49000000000007" as="sourcePoint" />
            <mxPoint x="274.7499999999999" y="259.49000000000007" as="targetPoint" />
          </mxGeometry>
        </mxCell>
        <mxCell id="B3y75TT9v0BTKmDL6PNu-46" value="" style="endArrow=none;html=1;rounded=0;fontFamily=맑은 고딕;fontSize=15;fontColor=#000000;strokeColor=#000000;strokeWidth=1;exitX=0;exitY=0;exitDx=0;exitDy=0;entryX=0;entryY=1;entryDx=0;entryDy=0;" parent="1" source="B3y75TT9v0BTKmDL6PNu-43" target="B3y75TT9v0BTKmDL6PNu-43" edge="1">
          <mxGeometry width="50" height="50" relative="1" as="geometry">
            <mxPoint x="274.25" y="339.83" as="sourcePoint" />
            <mxPoint x="274.25" y="379.83" as="targetPoint" />
          </mxGeometry>
        </mxCell>
        <mxCell id="B3y75TT9v0BTKmDL6PNu-47" value="" style="endArrow=none;html=1;rounded=0;fontFamily=맑은 고딕;fontSize=15;fontColor=#000000;strokeColor=#000000;strokeWidth=1;startSize=6;exitX=0;exitY=0;exitDx=0;exitDy=0;entryX=0.25;entryY=0;entryDx=0;entryDy=0;" parent="1" target="B3y75TT9v0BTKmDL6PNu-43" edge="1">
          <mxGeometry width="50" height="50" relative="1" as="geometry">
            <mxPoint x="274.2499999999999" y="179.82999999999998" as="sourcePoint" />
            <mxPoint x="305" y="120" as="targetPoint" />
            <Array as="points">
              <mxPoint x="289.25" y="179.82999999999998" />
            </Array>
          </mxGeometry>
        </mxCell>
        <mxCell id="B3y75TT9v0BTKmDL6PNu-48" value="" style="endArrow=none;html=1;rounded=0;fontFamily=맑은 고딕;fontSize=15;fontColor=#000000;strokeColor=#000000;strokeWidth=1;startSize=6;entryX=0.75;entryY=0;entryDx=0;entryDy=0;" parent="1" target="B3y75TT9v0BTKmDL6PNu-43" edge="1">
          <mxGeometry width="50" height="50" relative="1" as="geometry">
            <mxPoint x="405.2499999999999" y="179.82999999999998" as="sourcePoint" />
            <mxPoint x="375" y="180" as="targetPoint" />
          </mxGeometry>
        </mxCell>
        <mxCell id="B3y75TT9v0BTKmDL6PNu-49" value="Pod" style="rounded=0;whiteSpace=wrap;html=1;glass=0;labelBackgroundColor=none;fontFamily=맑은 고딕;fontSize=15;fontColor=#000000;strokeColor=#000000;strokeWidth=0;fillColor=#FFFFFF;" parent="1" vertex="1">
          <mxGeometry x="124.62" y="199.83" width="40.25" height="40" as="geometry" />
        </mxCell>
        <mxCell id="B3y75TT9v0BTKmDL6PNu-50" value="Pod" style="rounded=0;whiteSpace=wrap;html=1;glass=0;labelBackgroundColor=none;fontFamily=맑은 고딕;fontSize=15;fontColor=#000000;strokeColor=#000000;strokeWidth=0;fillColor=#FFFFFF;" parent="1" vertex="1">
          <mxGeometry x="184.62" y="199.83" width="40.25" height="40" as="geometry" />
        </mxCell>
        <mxCell id="B3y75TT9v0BTKmDL6PNu-51" value="Pod" style="rounded=0;whiteSpace=wrap;html=1;glass=0;labelBackgroundColor=none;fontFamily=맑은 고딕;fontSize=15;fontColor=#000000;strokeColor=#000000;strokeWidth=0;fillColor=#FFFFFF;" parent="1" vertex="1">
          <mxGeometry x="289.88" y="200" width="40.25" height="40" as="geometry" />
        </mxCell>
        <mxCell id="B3y75TT9v0BTKmDL6PNu-52" value="Pod" style="rounded=0;whiteSpace=wrap;html=1;glass=0;labelBackgroundColor=none;fontFamily=맑은 고딕;fontSize=15;fontColor=#000000;strokeColor=#000000;strokeWidth=0;fillColor=#FFFFFF;" parent="1" vertex="1">
          <mxGeometry x="349.88" y="200" width="40.25" height="40" as="geometry" />
        </mxCell>
        <mxCell id="B3y75TT9v0BTKmDL6PNu-53" value="Pod" style="rounded=0;whiteSpace=wrap;html=1;glass=0;labelBackgroundColor=none;fontFamily=맑은 고딕;fontSize=15;fontColor=#000000;strokeColor=#000000;strokeWidth=0;fillColor=#FFFFFF;" parent="1" vertex="1">
          <mxGeometry x="455.13" y="200" width="40.25" height="40" as="geometry" />
        </mxCell>
        <mxCell id="B3y75TT9v0BTKmDL6PNu-54" value="Pod" style="rounded=0;whiteSpace=wrap;html=1;glass=0;labelBackgroundColor=none;fontFamily=맑은 고딕;fontSize=15;fontColor=#000000;strokeColor=#000000;strokeWidth=0;fillColor=#FFFFFF;" parent="1" vertex="1">
          <mxGeometry x="515.13" y="200" width="40.25" height="40" as="geometry" />
        </mxCell>
      </root>
    </mxGraphModel>
  </diagram>
  <diagram id="jWiaDIFcxtbjYrEgSo1J" name="Pod">
    <mxGraphModel dx="981" dy="526" grid="1" gridSize="10" guides="1" tooltips="1" connect="1" arrows="1" fold="1" page="1" pageScale="1" pageWidth="827" pageHeight="1169" math="0" shadow="0">
      <root>
        <mxCell id="0" />
        <mxCell id="1" parent="0" />
        <mxCell id="pJ9Bs41D0uefA8cdXf1T-1" value="&lt;b&gt;Node&lt;/b&gt;" style="rounded=0;whiteSpace=wrap;html=1;fillColor=#CCCCCC;strokeColor=none;fontSize=20;fontFamily=맑은 고딕;labelPosition=center;verticalLabelPosition=top;align=center;verticalAlign=bottom;spacingBottom=-11;" vertex="1" parent="1">
          <mxGeometry x="320.5" y="120" width="200" height="320" as="geometry" />
        </mxCell>
        <mxCell id="UAB4d3aV1eBXIrBZufvv-1" value="&lt;b&gt;Node&lt;/b&gt;" style="rounded=0;whiteSpace=wrap;html=1;fillColor=#CCCCCC;strokeColor=none;fontSize=20;fontFamily=맑은 고딕;labelPosition=center;verticalLabelPosition=top;align=center;verticalAlign=bottom;spacingBottom=-11;" parent="1" vertex="1">
          <mxGeometry x="80" y="120" width="200" height="320" as="geometry" />
        </mxCell>
        <mxCell id="UAB4d3aV1eBXIrBZufvv-3" value="&lt;b&gt;Pod&lt;/b&gt;" style="rounded=0;whiteSpace=wrap;html=1;fontSize=20;fillColor=#b1ddf0;strokeColor=none;labelPosition=center;verticalLabelPosition=top;align=center;verticalAlign=bottom;spacingBottom=-13;fontFamily=맑은 고딕;" parent="1" vertex="1">
          <mxGeometry x="120" y="200" width="130" height="200" as="geometry" />
        </mxCell>
        <mxCell id="UAB4d3aV1eBXIrBZufvv-33" value="" style="endArrow=none;html=1;rounded=0;fontFamily=맑은 고딕;fontSize=15;fontColor=#000000;strokeColor=#000000;strokeWidth=1;entryX=1;entryY=0;entryDx=0;entryDy=0;exitX=1;exitY=1;exitDx=0;exitDy=0;" parent="1" source="UAB4d3aV1eBXIrBZufvv-3" target="UAB4d3aV1eBXIrBZufvv-3" edge="1">
          <mxGeometry width="50" height="50" relative="1" as="geometry">
            <mxPoint x="209.5" y="400" as="sourcePoint" />
            <mxPoint x="209.5" y="360" as="targetPoint" />
          </mxGeometry>
        </mxCell>
        <mxCell id="UAB4d3aV1eBXIrBZufvv-34" value="" style="endArrow=none;html=1;rounded=0;fontFamily=맑은 고딕;fontSize=15;fontColor=#000000;strokeColor=#000000;strokeWidth=1;exitX=1;exitY=1;exitDx=0;exitDy=0;entryX=0;entryY=1;entryDx=0;entryDy=0;" parent="1" edge="1">
          <mxGeometry width="50" height="50" relative="1" as="geometry">
            <mxPoint x="250.5" y="400" as="sourcePoint" />
            <mxPoint x="119.5" y="400" as="targetPoint" />
          </mxGeometry>
        </mxCell>
        <mxCell id="UAB4d3aV1eBXIrBZufvv-35" value="" style="endArrow=none;html=1;rounded=0;fontFamily=맑은 고딕;fontSize=15;fontColor=#000000;strokeColor=#000000;strokeWidth=1;exitX=0;exitY=0;exitDx=0;exitDy=0;entryX=0;entryY=1;entryDx=0;entryDy=0;" parent="1" source="UAB4d3aV1eBXIrBZufvv-3" target="UAB4d3aV1eBXIrBZufvv-3" edge="1">
          <mxGeometry width="50" height="50" relative="1" as="geometry">
            <mxPoint x="119.5" y="360" as="sourcePoint" />
            <mxPoint x="119.5" y="400" as="targetPoint" />
          </mxGeometry>
        </mxCell>
        <mxCell id="UAB4d3aV1eBXIrBZufvv-36" value="" style="endArrow=none;html=1;rounded=0;fontFamily=맑은 고딕;fontSize=15;fontColor=#000000;strokeColor=#000000;strokeWidth=1;startSize=6;entryX=0;entryY=0;entryDx=0;entryDy=0;exitX=0;exitY=0;exitDx=0;exitDy=0;" parent="1" edge="1">
          <mxGeometry width="50" height="50" relative="1" as="geometry">
            <mxPoint x="119.5" y="200" as="sourcePoint" />
            <mxPoint x="164" y="200" as="targetPoint" />
          </mxGeometry>
        </mxCell>
        <mxCell id="UAB4d3aV1eBXIrBZufvv-38" value="" style="endArrow=none;html=1;rounded=0;fontFamily=맑은 고딕;fontSize=15;fontColor=#000000;strokeColor=#000000;strokeWidth=1;startSize=6;entryX=0;entryY=0;entryDx=0;entryDy=0;" parent="1" edge="1">
          <mxGeometry width="50" height="50" relative="1" as="geometry">
            <mxPoint x="250.5" y="200" as="sourcePoint" />
            <mxPoint x="208" y="200" as="targetPoint" />
          </mxGeometry>
        </mxCell>
        <mxCell id="UAB4d3aV1eBXIrBZufvv-39" value="&lt;font style=&quot;font-size: 15px ; line-height: 1.2&quot;&gt;&lt;b&gt;Container&lt;/b&gt;&lt;/font&gt;" style="rounded=0;whiteSpace=wrap;html=1;fontFamily=맑은 고딕;fontSize=20;fillColor=#b0e3e6;strokeColor=none;verticalAlign=bottom;labelPosition=center;verticalLabelPosition=top;align=center;spacingBottom=-10;labelBackgroundColor=none;glass=0;perimeterSpacing=0;strokeWidth=0;" parent="1" vertex="1">
          <mxGeometry x="139.96" y="279.71" width="90" height="40" as="geometry" />
        </mxCell>
        <mxCell id="UAB4d3aV1eBXIrBZufvv-40" value="APP" style="rounded=0;whiteSpace=wrap;html=1;fontFamily=맑은 고딕;fontSize=10;fillColor=#d5e8d4;strokeColor=#82b366;fontStyle=1" parent="1" vertex="1">
          <mxGeometry x="160" y="292.5" width="50" height="15" as="geometry" />
        </mxCell>
        <mxCell id="UAB4d3aV1eBXIrBZufvv-41" value="" style="endArrow=none;html=1;rounded=0;fontFamily=맑은 고딕;fontSize=15;fontColor=#000000;strokeColor=#000000;strokeWidth=1;entryX=1;entryY=0;entryDx=0;entryDy=0;exitX=1;exitY=1;exitDx=0;exitDy=0;" parent="1" source="UAB4d3aV1eBXIrBZufvv-39" target="UAB4d3aV1eBXIrBZufvv-39" edge="1">
          <mxGeometry width="50" height="50" relative="1" as="geometry">
            <mxPoint x="179.96" y="349.71000000000004" as="sourcePoint" />
            <mxPoint x="229.96" y="299.71000000000004" as="targetPoint" />
          </mxGeometry>
        </mxCell>
        <mxCell id="UAB4d3aV1eBXIrBZufvv-42" value="" style="endArrow=none;html=1;rounded=0;fontFamily=맑은 고딕;fontSize=15;fontColor=#000000;strokeColor=#000000;strokeWidth=1;entryX=0;entryY=1;entryDx=0;entryDy=0;exitX=1;exitY=1;exitDx=0;exitDy=0;" parent="1" edge="1">
          <mxGeometry width="50" height="50" relative="1" as="geometry">
            <mxPoint x="230.46" y="319.71000000000004" as="sourcePoint" />
            <mxPoint x="139.46" y="319.71000000000004" as="targetPoint" />
          </mxGeometry>
        </mxCell>
        <mxCell id="UAB4d3aV1eBXIrBZufvv-43" value="" style="endArrow=none;html=1;rounded=0;fontFamily=맑은 고딕;fontSize=15;fontColor=#000000;strokeColor=#000000;strokeWidth=1;entryX=0;entryY=1;entryDx=0;entryDy=0;exitX=0;exitY=0;exitDx=0;exitDy=0;" parent="1" source="UAB4d3aV1eBXIrBZufvv-39" target="UAB4d3aV1eBXIrBZufvv-39" edge="1">
          <mxGeometry width="50" height="50" relative="1" as="geometry">
            <mxPoint x="239.96" y="329.71000000000004" as="sourcePoint" />
            <mxPoint x="149.96" y="329.71000000000004" as="targetPoint" />
          </mxGeometry>
        </mxCell>
        <mxCell id="UAB4d3aV1eBXIrBZufvv-44" value="" style="endArrow=none;html=1;rounded=0;fontFamily=맑은 고딕;fontSize=15;fontColor=#000000;strokeColor=#000000;strokeWidth=1;startSize=6;" parent="1" edge="1">
          <mxGeometry width="50" height="50" relative="1" as="geometry">
            <mxPoint x="139.46" y="279.71" as="sourcePoint" />
            <mxPoint x="149.96" y="279.71" as="targetPoint" />
          </mxGeometry>
        </mxCell>
        <mxCell id="UAB4d3aV1eBXIrBZufvv-45" value="" style="endArrow=none;html=1;rounded=0;fontFamily=맑은 고딕;fontSize=15;fontColor=#000000;strokeColor=#000000;strokeWidth=1;startSize=6;" parent="1" edge="1">
          <mxGeometry width="50" height="50" relative="1" as="geometry">
            <mxPoint x="219.96" y="279.71" as="sourcePoint" />
            <mxPoint x="230.46" y="279.71" as="targetPoint" />
          </mxGeometry>
        </mxCell>
        <mxCell id="UAB4d3aV1eBXIrBZufvv-46" value="&lt;b&gt;Pod&lt;/b&gt;" style="rounded=0;whiteSpace=wrap;html=1;fontSize=20;fillColor=#b1ddf0;strokeColor=none;labelPosition=center;verticalLabelPosition=top;align=center;verticalAlign=bottom;spacingBottom=-13;fontFamily=맑은 고딕;" parent="1" vertex="1">
          <mxGeometry x="355.46000000000004" y="200" width="130" height="200" as="geometry" />
        </mxCell>
        <mxCell id="UAB4d3aV1eBXIrBZufvv-47" value="&lt;font style=&quot;font-size: 15px ; line-height: 1.2&quot;&gt;&lt;b&gt;Container&lt;/b&gt;&lt;/font&gt;" style="rounded=0;whiteSpace=wrap;html=1;fontFamily=맑은 고딕;fontSize=20;fillColor=#b0e3e6;strokeColor=none;verticalAlign=bottom;labelPosition=center;verticalLabelPosition=top;align=center;spacingBottom=-10;labelBackgroundColor=none;glass=0;perimeterSpacing=0;strokeWidth=0;" parent="1" vertex="1">
          <mxGeometry x="374.96000000000004" y="320" width="90" height="40" as="geometry" />
        </mxCell>
        <mxCell id="UAB4d3aV1eBXIrBZufvv-48" value="APP" style="rounded=0;whiteSpace=wrap;html=1;fontFamily=맑은 고딕;fontSize=10;fillColor=#d5e8d4;strokeColor=#82b366;fontStyle=1" parent="1" vertex="1">
          <mxGeometry x="395.46000000000004" y="332.5" width="50" height="15" as="geometry" />
        </mxCell>
        <mxCell id="UAB4d3aV1eBXIrBZufvv-49" value="" style="endArrow=none;html=1;rounded=0;fontFamily=맑은 고딕;fontSize=15;fontColor=#000000;strokeColor=#000000;strokeWidth=1;entryX=1;entryY=0;entryDx=0;entryDy=0;exitX=1;exitY=1;exitDx=0;exitDy=0;" parent="1" source="UAB4d3aV1eBXIrBZufvv-47" target="UAB4d3aV1eBXIrBZufvv-47" edge="1">
          <mxGeometry width="50" height="50" relative="1" as="geometry">
            <mxPoint x="414.96000000000004" y="390" as="sourcePoint" />
            <mxPoint x="464.96000000000004" y="340" as="targetPoint" />
          </mxGeometry>
        </mxCell>
        <mxCell id="UAB4d3aV1eBXIrBZufvv-50" value="" style="endArrow=none;html=1;rounded=0;fontFamily=맑은 고딕;fontSize=15;fontColor=#000000;strokeColor=#000000;strokeWidth=1;entryX=0;entryY=1;entryDx=0;entryDy=0;exitX=1;exitY=1;exitDx=0;exitDy=0;" parent="1" edge="1">
          <mxGeometry width="50" height="50" relative="1" as="geometry">
            <mxPoint x="465.46000000000004" y="360" as="sourcePoint" />
            <mxPoint x="374.46000000000004" y="360" as="targetPoint" />
          </mxGeometry>
        </mxCell>
        <mxCell id="UAB4d3aV1eBXIrBZufvv-51" value="" style="endArrow=none;html=1;rounded=0;fontFamily=맑은 고딕;fontSize=15;fontColor=#000000;strokeColor=#000000;strokeWidth=1;entryX=0;entryY=1;entryDx=0;entryDy=0;exitX=0;exitY=0;exitDx=0;exitDy=0;" parent="1" source="UAB4d3aV1eBXIrBZufvv-47" target="UAB4d3aV1eBXIrBZufvv-47" edge="1">
          <mxGeometry width="50" height="50" relative="1" as="geometry">
            <mxPoint x="474.96000000000004" y="370" as="sourcePoint" />
            <mxPoint x="384.96000000000004" y="370" as="targetPoint" />
          </mxGeometry>
        </mxCell>
        <mxCell id="UAB4d3aV1eBXIrBZufvv-52" value="" style="endArrow=none;html=1;rounded=0;fontFamily=맑은 고딕;fontSize=15;fontColor=#000000;strokeColor=#000000;strokeWidth=1;startSize=6;" parent="1" edge="1">
          <mxGeometry width="50" height="50" relative="1" as="geometry">
            <mxPoint x="374.46000000000004" y="320" as="sourcePoint" />
            <mxPoint x="384.96000000000004" y="320" as="targetPoint" />
          </mxGeometry>
        </mxCell>
        <mxCell id="UAB4d3aV1eBXIrBZufvv-53" value="" style="endArrow=none;html=1;rounded=0;fontFamily=맑은 고딕;fontSize=15;fontColor=#000000;strokeColor=#000000;strokeWidth=1;startSize=6;" parent="1" edge="1">
          <mxGeometry width="50" height="50" relative="1" as="geometry">
            <mxPoint x="454.96000000000004" y="320" as="sourcePoint" />
            <mxPoint x="465.46000000000004" y="320" as="targetPoint" />
          </mxGeometry>
        </mxCell>
        <mxCell id="UAB4d3aV1eBXIrBZufvv-54" value="" style="endArrow=none;html=1;rounded=0;fontFamily=맑은 고딕;fontSize=15;fontColor=#000000;strokeColor=#000000;strokeWidth=1;entryX=1;entryY=0;entryDx=0;entryDy=0;exitX=1;exitY=1;exitDx=0;exitDy=0;" parent="1" source="UAB4d3aV1eBXIrBZufvv-46" target="UAB4d3aV1eBXIrBZufvv-46" edge="1">
          <mxGeometry width="50" height="50" relative="1" as="geometry">
            <mxPoint x="444.96000000000004" y="400" as="sourcePoint" />
            <mxPoint x="444.96000000000004" y="360" as="targetPoint" />
          </mxGeometry>
        </mxCell>
        <mxCell id="UAB4d3aV1eBXIrBZufvv-55" value="" style="endArrow=none;html=1;rounded=0;fontFamily=맑은 고딕;fontSize=15;fontColor=#000000;strokeColor=#000000;strokeWidth=1;exitX=1;exitY=1;exitDx=0;exitDy=0;entryX=0;entryY=1;entryDx=0;entryDy=0;" parent="1" edge="1">
          <mxGeometry width="50" height="50" relative="1" as="geometry">
            <mxPoint x="485.96000000000004" y="400" as="sourcePoint" />
            <mxPoint x="354.96000000000004" y="400" as="targetPoint" />
          </mxGeometry>
        </mxCell>
        <mxCell id="UAB4d3aV1eBXIrBZufvv-56" value="" style="endArrow=none;html=1;rounded=0;fontFamily=맑은 고딕;fontSize=15;fontColor=#000000;strokeColor=#000000;strokeWidth=1;exitX=0;exitY=0;exitDx=0;exitDy=0;entryX=0;entryY=1;entryDx=0;entryDy=0;" parent="1" source="UAB4d3aV1eBXIrBZufvv-46" target="UAB4d3aV1eBXIrBZufvv-46" edge="1">
          <mxGeometry width="50" height="50" relative="1" as="geometry">
            <mxPoint x="354.96000000000004" y="360" as="sourcePoint" />
            <mxPoint x="354.96000000000004" y="400" as="targetPoint" />
          </mxGeometry>
        </mxCell>
        <mxCell id="UAB4d3aV1eBXIrBZufvv-57" value="" style="endArrow=none;html=1;rounded=0;fontFamily=맑은 고딕;fontSize=15;fontColor=#000000;strokeColor=#000000;strokeWidth=1;startSize=6;entryX=0;entryY=0;entryDx=0;entryDy=0;exitX=0;exitY=0;exitDx=0;exitDy=0;" parent="1" edge="1">
          <mxGeometry width="50" height="50" relative="1" as="geometry">
            <mxPoint x="354.96000000000004" y="200" as="sourcePoint" />
            <mxPoint x="399.46000000000004" y="200" as="targetPoint" />
            <Array as="points">
              <mxPoint x="369.96000000000004" y="200" />
            </Array>
          </mxGeometry>
        </mxCell>
        <mxCell id="UAB4d3aV1eBXIrBZufvv-58" value="" style="endArrow=none;html=1;rounded=0;fontFamily=맑은 고딕;fontSize=15;fontColor=#000000;strokeColor=#000000;strokeWidth=1;startSize=6;entryX=0;entryY=0;entryDx=0;entryDy=0;" parent="1" edge="1">
          <mxGeometry width="50" height="50" relative="1" as="geometry">
            <mxPoint x="485.96000000000004" y="200" as="sourcePoint" />
            <mxPoint x="443.46000000000004" y="200" as="targetPoint" />
          </mxGeometry>
        </mxCell>
        <mxCell id="UAB4d3aV1eBXIrBZufvv-59" value="&lt;font style=&quot;font-size: 15px ; line-height: 1.2&quot;&gt;&lt;b&gt;Container&lt;/b&gt;&lt;/font&gt;" style="rounded=0;whiteSpace=wrap;html=1;fontFamily=맑은 고딕;fontSize=20;fillColor=#b0e3e6;strokeColor=none;verticalAlign=bottom;labelPosition=center;verticalLabelPosition=top;align=center;spacingBottom=-10;labelBackgroundColor=none;glass=0;perimeterSpacing=0;strokeWidth=0;" parent="1" vertex="1">
          <mxGeometry x="374.96000000000004" y="239.67" width="90" height="40" as="geometry" />
        </mxCell>
        <mxCell id="UAB4d3aV1eBXIrBZufvv-60" value="APP" style="rounded=0;whiteSpace=wrap;html=1;fontFamily=맑은 고딕;fontSize=10;fillColor=#d5e8d4;strokeColor=#82b366;fontStyle=1" parent="1" vertex="1">
          <mxGeometry x="395.46000000000004" y="252.16999999999996" width="50" height="15" as="geometry" />
        </mxCell>
        <mxCell id="UAB4d3aV1eBXIrBZufvv-61" value="" style="endArrow=none;html=1;rounded=0;fontFamily=맑은 고딕;fontSize=15;fontColor=#000000;strokeColor=#000000;strokeWidth=1;entryX=1;entryY=0;entryDx=0;entryDy=0;exitX=1;exitY=1;exitDx=0;exitDy=0;" parent="1" source="UAB4d3aV1eBXIrBZufvv-59" target="UAB4d3aV1eBXIrBZufvv-59" edge="1">
          <mxGeometry width="50" height="50" relative="1" as="geometry">
            <mxPoint x="414.96000000000004" y="309.67" as="sourcePoint" />
            <mxPoint x="464.96000000000004" y="259.67" as="targetPoint" />
          </mxGeometry>
        </mxCell>
        <mxCell id="UAB4d3aV1eBXIrBZufvv-62" value="" style="endArrow=none;html=1;rounded=0;fontFamily=맑은 고딕;fontSize=15;fontColor=#000000;strokeColor=#000000;strokeWidth=1;entryX=0;entryY=1;entryDx=0;entryDy=0;exitX=1;exitY=1;exitDx=0;exitDy=0;" parent="1" edge="1">
          <mxGeometry width="50" height="50" relative="1" as="geometry">
            <mxPoint x="465.46000000000004" y="279.6700000000001" as="sourcePoint" />
            <mxPoint x="374.46000000000004" y="279.6700000000001" as="targetPoint" />
          </mxGeometry>
        </mxCell>
        <mxCell id="UAB4d3aV1eBXIrBZufvv-63" value="" style="endArrow=none;html=1;rounded=0;fontFamily=맑은 고딕;fontSize=15;fontColor=#000000;strokeColor=#000000;strokeWidth=1;entryX=0;entryY=1;entryDx=0;entryDy=0;exitX=0;exitY=0;exitDx=0;exitDy=0;" parent="1" source="UAB4d3aV1eBXIrBZufvv-59" target="UAB4d3aV1eBXIrBZufvv-59" edge="1">
          <mxGeometry width="50" height="50" relative="1" as="geometry">
            <mxPoint x="474.96000000000004" y="289.67" as="sourcePoint" />
            <mxPoint x="384.96000000000004" y="289.67" as="targetPoint" />
          </mxGeometry>
        </mxCell>
        <mxCell id="UAB4d3aV1eBXIrBZufvv-64" value="" style="endArrow=none;html=1;rounded=0;fontFamily=맑은 고딕;fontSize=15;fontColor=#000000;strokeColor=#000000;strokeWidth=1;startSize=6;" parent="1" edge="1">
          <mxGeometry width="50" height="50" relative="1" as="geometry">
            <mxPoint x="374.46000000000004" y="239.6699999999999" as="sourcePoint" />
            <mxPoint x="384.96000000000004" y="239.6699999999999" as="targetPoint" />
          </mxGeometry>
        </mxCell>
        <mxCell id="UAB4d3aV1eBXIrBZufvv-65" value="" style="endArrow=none;html=1;rounded=0;fontFamily=맑은 고딕;fontSize=15;fontColor=#000000;strokeColor=#000000;strokeWidth=1;startSize=6;" parent="1" edge="1">
          <mxGeometry width="50" height="50" relative="1" as="geometry">
            <mxPoint x="454.96000000000004" y="239.6699999999999" as="sourcePoint" />
            <mxPoint x="465.46000000000004" y="239.6699999999999" as="targetPoint" />
          </mxGeometry>
        </mxCell>
        <mxCell id="UAB4d3aV1eBXIrBZufvv-66" value="" style="endArrow=none;html=1;rounded=0;fontFamily=맑은 고딕;fontSize=20;fontColor=#000000;startSize=6;strokeColor=#000000;strokeWidth=1;entryX=0;entryY=0;entryDx=0;entryDy=0;exitX=0;exitY=1;exitDx=0;exitDy=0;" parent="1" source="UAB4d3aV1eBXIrBZufvv-1" target="UAB4d3aV1eBXIrBZufvv-1" edge="1">
          <mxGeometry width="50" height="50" relative="1" as="geometry">
            <mxPoint x="200" y="280" as="sourcePoint" />
            <mxPoint x="250" y="230" as="targetPoint" />
          </mxGeometry>
        </mxCell>
        <mxCell id="UAB4d3aV1eBXIrBZufvv-67" value="" style="endArrow=none;html=1;rounded=0;fontFamily=맑은 고딕;fontSize=20;fontColor=#000000;startSize=6;strokeColor=#000000;strokeWidth=1;entryX=1;entryY=0;entryDx=0;entryDy=0;exitX=1;exitY=1;exitDx=0;exitDy=0;" parent="1" source="UAB4d3aV1eBXIrBZufvv-1" target="UAB4d3aV1eBXIrBZufvv-1" edge="1">
          <mxGeometry width="50" height="50" relative="1" as="geometry">
            <mxPoint x="200" y="280" as="sourcePoint" />
            <mxPoint x="250" y="230" as="targetPoint" />
          </mxGeometry>
        </mxCell>
        <mxCell id="UAB4d3aV1eBXIrBZufvv-68" value="" style="endArrow=none;html=1;rounded=0;fontFamily=맑은 고딕;fontSize=20;fontColor=#000000;startSize=6;strokeColor=#000000;strokeWidth=1;exitX=0;exitY=1;exitDx=0;exitDy=0;entryX=1;entryY=1;entryDx=0;entryDy=0;" parent="1" edge="1" target="UAB4d3aV1eBXIrBZufvv-1">
          <mxGeometry width="50" height="50" relative="1" as="geometry">
            <mxPoint x="79.5" y="440" as="sourcePoint" />
            <mxPoint x="240" y="440" as="targetPoint" />
          </mxGeometry>
        </mxCell>
        <mxCell id="UAB4d3aV1eBXIrBZufvv-69" value="" style="endArrow=none;html=1;rounded=0;fontFamily=맑은 고딕;fontSize=20;fontColor=#000000;startSize=6;strokeColor=#000000;strokeWidth=1;exitX=0.75;exitY=0;exitDx=0;exitDy=0;" parent="1" edge="1">
          <mxGeometry width="50" height="50" relative="1" as="geometry">
            <mxPoint x="210" y="120" as="sourcePoint" />
            <mxPoint x="280" y="120" as="targetPoint" />
          </mxGeometry>
        </mxCell>
        <mxCell id="UAB4d3aV1eBXIrBZufvv-70" value="" style="endArrow=none;html=1;rounded=0;fontFamily=맑은 고딕;fontSize=20;fontColor=#000000;startSize=6;strokeColor=#000000;strokeWidth=1;entryX=0;entryY=0;entryDx=0;entryDy=0;" parent="1" edge="1">
          <mxGeometry width="50" height="50" relative="1" as="geometry">
            <mxPoint x="150" y="120" as="sourcePoint" />
            <mxPoint x="79.5" y="120" as="targetPoint" />
          </mxGeometry>
        </mxCell>
        <mxCell id="UAB4d3aV1eBXIrBZufvv-71" value="&amp;lt;단일&amp;gt;" style="text;html=1;strokeColor=none;fillColor=none;align=center;verticalAlign=middle;whiteSpace=wrap;rounded=0;glass=0;labelBackgroundColor=none;fontFamily=맑은 고딕;fontSize=15;fontColor=#000000;fontStyle=1" parent="1" vertex="1">
          <mxGeometry x="155" y="400" width="60" height="30" as="geometry" />
        </mxCell>
        <mxCell id="UAB4d3aV1eBXIrBZufvv-72" value="&amp;lt;다중&amp;gt;" style="text;html=1;strokeColor=none;fillColor=none;align=center;verticalAlign=middle;whiteSpace=wrap;rounded=0;glass=0;labelBackgroundColor=none;fontFamily=맑은 고딕;fontSize=15;fontColor=#000000;fontStyle=1" parent="1" vertex="1">
          <mxGeometry x="384" y="400" width="60" height="30" as="geometry" />
        </mxCell>
        <mxCell id="pJ9Bs41D0uefA8cdXf1T-2" value="" style="endArrow=none;html=1;rounded=0;fontFamily=맑은 고딕;fontSize=20;fontColor=#000000;startSize=6;strokeColor=#000000;strokeWidth=1;exitX=0.75;exitY=0;exitDx=0;exitDy=0;" edge="1" parent="1">
          <mxGeometry width="50" height="50" relative="1" as="geometry">
            <mxPoint x="320.5" y="120" as="sourcePoint" />
            <mxPoint x="390.5" y="120" as="targetPoint" />
          </mxGeometry>
        </mxCell>
        <mxCell id="pJ9Bs41D0uefA8cdXf1T-3" value="" style="endArrow=none;html=1;rounded=0;fontFamily=맑은 고딕;fontSize=20;fontColor=#000000;startSize=6;strokeColor=#000000;strokeWidth=1;exitX=0.75;exitY=0;exitDx=0;exitDy=0;" edge="1" parent="1">
          <mxGeometry width="50" height="50" relative="1" as="geometry">
            <mxPoint x="450.5" y="120" as="sourcePoint" />
            <mxPoint x="520.5" y="120" as="targetPoint" />
          </mxGeometry>
        </mxCell>
        <mxCell id="pJ9Bs41D0uefA8cdXf1T-4" value="" style="endArrow=none;html=1;rounded=0;fontFamily=맑은 고딕;fontSize=20;fontColor=#000000;startSize=6;strokeColor=#000000;strokeWidth=1;exitX=0.75;exitY=0;exitDx=0;exitDy=0;entryX=1;entryY=1;entryDx=0;entryDy=0;" edge="1" parent="1" target="pJ9Bs41D0uefA8cdXf1T-1">
          <mxGeometry width="50" height="50" relative="1" as="geometry">
            <mxPoint x="320.5" y="440" as="sourcePoint" />
            <mxPoint x="390.5" y="440" as="targetPoint" />
          </mxGeometry>
        </mxCell>
        <mxCell id="pJ9Bs41D0uefA8cdXf1T-5" value="" style="endArrow=none;html=1;rounded=0;fontFamily=맑은 고딕;fontSize=20;fontColor=#000000;startSize=6;strokeColor=#000000;strokeWidth=1;exitX=1;exitY=0;exitDx=0;exitDy=0;entryX=1;entryY=1;entryDx=0;entryDy=0;" edge="1" parent="1" source="pJ9Bs41D0uefA8cdXf1T-1" target="pJ9Bs41D0uefA8cdXf1T-1">
          <mxGeometry width="50" height="50" relative="1" as="geometry">
            <mxPoint x="330.5" y="450" as="sourcePoint" />
            <mxPoint x="530.5" y="450" as="targetPoint" />
          </mxGeometry>
        </mxCell>
        <mxCell id="pJ9Bs41D0uefA8cdXf1T-6" value="" style="endArrow=none;html=1;rounded=0;fontFamily=맑은 고딕;fontSize=20;fontColor=#000000;startSize=6;strokeColor=#000000;strokeWidth=1;entryX=0;entryY=1;entryDx=0;entryDy=0;" edge="1" parent="1" target="pJ9Bs41D0uefA8cdXf1T-1">
          <mxGeometry width="50" height="50" relative="1" as="geometry">
            <mxPoint x="321" y="120" as="sourcePoint" />
            <mxPoint x="530.5" y="450" as="targetPoint" />
          </mxGeometry>
        </mxCell>
      </root>
    </mxGraphModel>
  </diagram>
</mxfile>
